<?xml version="1.0" encoding="UTF-8" standalone="no"?>
<svg
   xmlns:dc="http://purl.org/dc/elements/1.1/"
   xmlns:cc="http://creativecommons.org/ns#"
   xmlns:rdf="http://www.w3.org/1999/02/22-rdf-syntax-ns#"
   xmlns:svg="http://www.w3.org/2000/svg"
   xmlns="http://www.w3.org/2000/svg"
   xmlns:sodipodi="http://sodipodi.sourceforge.net/DTD/sodipodi-0.dtd"
   xmlns:inkscape="http://www.inkscape.org/namespaces/inkscape"
   version="1.1"
   x="0px"
   y="0px"
   width="100px"
   height="100px"
   viewBox="0 0 100 100"
   enable-background="new 0 0 100 100"
   xml:space="preserve"
   id="svg2"
   inkscape:version="0.48.4 r9939"
   sodipodi:docname="pin.svg"><metadata
     id="metadata14"><rdf:RDF><cc:Work
         rdf:about=""><dc:format>image/svg+xml</dc:format><dc:type
           rdf:resource="http://purl.org/dc/dcmitype/StillImage" /><dc:title></dc:title></cc:Work></rdf:RDF></metadata><defs
     id="defs12" /><sodipodi:namedview
     pagecolor="#ffffff"
     bordercolor="#666666"
     borderopacity="1"
     objecttolerance="10"
     gridtolerance="10"
     guidetolerance="10"
     inkscape:pageopacity="0"
     inkscape:pageshadow="2"
     inkscape:window-width="1280"
     inkscape:window-height="734"
     id="namedview10"
     showgrid="false"
     inkscape:zoom="2.36"
     inkscape:cx="5.0115301"
     inkscape:cy="50"
     inkscape:window-x="0"
     inkscape:window-y="27"
     inkscape:window-maximized="1"
     inkscape:current-layer="svg2" /><path
     d="M 50,0 C 31.048,0 15.629,15.418 15.629,34.371 c 0,4.794 1.409,13.532 13.595,33.982 C 35.456,78.81 41.6,87.444 41.859,87.807 L 50,99.221 58.142,87.807 C 58.4,87.445 64.544,78.81 70.777,68.353 82.963,47.903 84.372,39.165 84.372,34.371 84.371,15.418 68.952,0 50,0 l 0,0 z"
     id="path8" /><g
     id="Captions" /><path
     d="M 50,10 C 63.457,10 74.371,20.909 74.371,34.371 74.371,47.832 50,82 50,82 50,82 25.629,47.832 25.629,34.371 25.629,20.909 36.542,10 50,10"
     id="path3777"
     style="fill:#ff0000" /><path
     d="m 60,34 c 0,5.527 -4.466,10 -10,10 -5.527,0 -10,-4.473 -10,-10 0,-5.531 4.473,-10 10,-10 5.534,0 10,4.469 10,10 z"
     id="path3779" /></svg>