<?xml version="1.0" encoding="UTF-8" standalone="no"?>
<!-- Created with Inkscape (http://www.inkscape.org/) -->

<svg
   xmlns:dc="http://purl.org/dc/elements/1.1/"
   xmlns:cc="http://creativecommons.org/ns#"
   xmlns:rdf="http://www.w3.org/1999/02/22-rdf-syntax-ns#"
   xmlns:svg="http://www.w3.org/2000/svg"
   xmlns="http://www.w3.org/2000/svg"
   xmlns:sodipodi="http://sodipodi.sourceforge.net/DTD/sodipodi-0.dtd"
   xmlns:inkscape="http://www.inkscape.org/namespaces/inkscape"
   width="32px"
   height="32px"
   id="svg3405"
   version="1.1"
   inkscape:version="0.48.4 r9939"
   sodipodi:docname="New document 2">
  <defs
     id="defs3407" />
  <sodipodi:namedview
     id="base"
     pagecolor="#ffffff"
     bordercolor="#666666"
     borderopacity="1.0"
     inkscape:pageopacity="0.0"
     inkscape:pageshadow="2"
     inkscape:zoom="11.197802"
     inkscape:cx="4.6584885"
     inkscape:cy="16"
     inkscape:current-layer="layer1"
     showgrid="true"
     inkscape:grid-bbox="true"
     inkscape:document-units="px"
     inkscape:window-width="1280"
     inkscape:window-height="734"
     inkscape:window-x="0"
     inkscape:window-y="27"
     inkscape:window-maximized="1" />
  <metadata
     id="metadata3410">
    <rdf:RDF>
      <cc:Work
         rdf:about="">
        <dc:format>image/svg+xml</dc:format>
        <dc:type
           rdf:resource="http://purl.org/dc/dcmitype/StillImage" />
        <dc:title></dc:title>
      </cc:Work>
    </rdf:RDF>
  </metadata>
  <g
     id="layer1"
     inkscape:label="Layer 1"
     inkscape:groupmode="layer">
    <path
       d="m 8.5171739,2.9050539 0,1.8707064 3.7414121,4.5013881 0,2.9814386 7.482827,0 0,-2.9814386 3.741413,-4.5013881 0,-1.8707064 -1.870707,0 -3.741412,3.7414128 -3.741414,0 -3.741412,-3.7414128 -1.870707,0 z M 10.387881,14.129294 8.5171739,16 l -5.6121201,0 -1.8707066,1.870706 1.8707066,1.870708 5.6121201,0 0,1.870706 -3.7414139,1.870707 -1.8707062,1.870706 0,1.870706 1.8707062,0 3.7414139,-1.870706 3.7414121,3.741413 7.482827,0 3.741413,-3.741413 3.741413,1.870706 1.870707,0 0,-1.870706 -1.870707,-1.870706 -3.741413,-1.870707 0,-1.870706 5.61212,0 1.870707,-1.870708 L 29.094946,16 l -5.61212,0 -1.870707,-1.870706 -11.224238,0 z"
       id="path14360"
       style="opacity:0.5;color:#000000;fill:#000000;fill-opacity:1;fill-rule:nonzero;stroke:none;stroke-width:2.79999375;marker:none;visibility:visible;display:inline;overflow:visible;enable-background:accumulate"
       inkscape:connector-curvature="0" />
  </g>
</svg>
